<svg width="48" height="48" viewBox="0 0 48 48" fill="none" xmlns="http://www.w3.org/2000/svg">
<circle cx="23.9993" cy="24.0001" r="23.3333" fill="#EBF0FE"/>
<path d="M32.9275 19.5L33.6766 18.77C33.8767 18.5751 33.9891 18.3107 33.9891 18.035C33.9891 17.7593 33.8767 17.4949 33.6766 17.3C33.4766 17.1051 33.2053 16.9956 32.9224 16.9956C32.6395 16.9956 32.3682 17.1051 32.1681 17.3L31.419 18L30.6699 17.27C30.4658 17.0751 30.1906 16.9671 29.9048 16.9699C29.619 16.9728 29.3461 17.0861 29.146 17.285C28.946 17.4839 28.8352 17.7521 28.8381 18.0306C28.841 18.3091 28.9573 18.5751 29.1614 18.77L29.9105 19.5L29.1614 20.23C28.9614 20.4249 28.849 20.6893 28.849 20.965C28.849 21.2407 28.9614 21.5051 29.1614 21.7C29.3614 21.8949 29.6328 22.0044 29.9157 22.0044C30.1986 22.0044 30.4699 21.8949 30.6699 21.7L31.419 21L32.1681 21.73C32.3723 21.9249 32.6475 22.0329 32.9333 22.0301C33.2191 22.0272 33.492 21.9139 33.692 21.715C33.8921 21.5161 34.0028 21.2479 33.9999 20.9694C33.9971 20.6909 33.8808 20.4249 33.6766 20.23L32.9275 19.5ZM22.1833 23C22.9952 23 23.7888 22.7654 24.4638 22.3259C25.1388 21.8864 25.6649 21.2616 25.9756 20.5307C26.2863 19.7998 26.3676 18.9956 26.2092 18.2196C26.0508 17.4437 25.6599 16.731 25.0858 16.1716C24.5118 15.6122 23.7804 15.2312 22.9841 15.0769C22.1879 14.9225 21.3625 15.0017 20.6125 15.3045C19.8625 15.6072 19.2214 16.1199 18.7703 16.7777C18.3193 17.4355 18.0786 18.2089 18.0786 19C18.0786 20.0609 18.511 21.0783 19.2808 21.8284C20.0506 22.5786 21.0947 23 22.1833 23ZM28.3405 33C28.6126 33 28.8736 32.8946 29.0661 32.7071C29.2585 32.5196 29.3666 32.2652 29.3666 32C29.3666 30.1435 28.6098 28.363 27.2627 27.0503C25.9156 25.7375 24.0885 25 22.1833 25C20.2782 25 18.4511 25.7375 17.1039 27.0503C15.7568 28.363 15 30.1435 15 32C15 32.2652 15.1081 32.5196 15.3006 32.7071C15.493 32.8946 15.754 33 16.0262 33H28.3405Z" fill="#3661EB"/>
</svg>
