<svg width="24" height="24" viewBox="0 0 24 24" fill="none" xmlns="http://www.w3.org/2000/svg">
<path fill-rule="evenodd" clip-rule="evenodd" d="M11.1816 15.0907C9.4776 15.0907 8.0906 13.7037 8.0906 11.9997C8.0906 10.2957 9.4776 8.9087 11.1816 8.9087C12.8856 8.9087 14.2726 10.2957 14.2726 11.9997C14.2726 13.7037 12.8856 15.0907 11.1816 15.0907ZM12.9546 2.0437C9.95359 1.7617 7.01859 2.8247 4.9056 4.9527C2.79159 7.0797 1.7506 10.0227 2.0506 13.0257C2.4086 16.5977 4.6596 19.7077 7.9266 21.1407C9.2336 21.7137 10.6196 21.9947 11.9956 21.9947C14.1636 21.9947 16.3086 21.2957 18.0796 19.9397C18.5186 19.6037 18.6016 18.9757 18.2656 18.5367C17.9296 18.0997 17.3026 18.0167 16.8636 18.3517C14.5456 20.1267 11.4296 20.4907 8.7296 19.3087C6.1616 18.1827 4.3226 15.6387 4.0406 12.8257C3.8006 10.4207 4.6326 8.0647 6.32459 6.3617C8.0146 4.6597 10.3666 3.8077 12.7696 4.0357C16.8246 4.4127 19.9996 8.0097 19.9996 12.2247V12.8997C19.9996 13.3677 19.8136 13.8037 19.4746 14.1277C19.1366 14.4517 18.6886 14.6177 18.2216 14.5977C17.3276 14.5587 16.5996 13.7177 16.5996 12.7237V8.3997C16.5996 7.8467 16.1526 7.3997 15.5996 7.3997C15.0906 7.3997 14.6886 7.7827 14.6246 8.2747C13.7166 7.4347 12.5126 6.9087 11.1816 6.9087C8.37459 6.9087 6.0906 9.1937 6.0906 11.9997C6.0906 14.8067 8.37459 17.0907 11.1816 17.0907C12.8816 17.0907 14.3806 16.2447 15.3056 14.9607C15.9506 15.9007 16.9736 16.5447 18.1336 16.5957C19.1466 16.6497 20.1206 16.2777 20.8576 15.5727C21.5946 14.8677 21.9996 13.9187 21.9996 12.8997V12.2247C21.9996 6.9877 18.0276 2.5167 12.9546 2.0437Z" fill="#9B9B9B"/>
</svg>
