<svg width="22" height="22" viewBox="0 0 22 22" fill="none" xmlns="http://www.w3.org/2000/svg">
<path d="M18.6923 2.53857H3.30769C2.03319 2.53857 1 3.57176 1 4.84627V18.6924C1 19.9669 2.03319 21.0001 3.30769 21.0001H18.6923C19.9668 21.0001 21 19.9669 21 18.6924V4.84627C21 3.57176 19.9668 2.53857 18.6923 2.53857Z" stroke="#5A6474" stroke-width="2" stroke-linejoin="round"/>
<path d="M12.9247 11.0006C13.562 11.0006 14.0786 10.484 14.0786 9.84672C14.0786 9.20947 13.562 8.69287 12.9247 8.69287C12.2875 8.69287 11.7709 9.20947 11.7709 9.84672C11.7709 10.484 12.2875 11.0006 12.9247 11.0006Z" fill="#5A6474"/>
<path d="M16.771 11.0006C17.4083 11.0006 17.9249 10.484 17.9249 9.84672C17.9249 9.20947 17.4083 8.69287 16.771 8.69287C16.1338 8.69287 15.6172 9.20947 15.6172 9.84672C15.6172 10.484 16.1338 11.0006 16.771 11.0006Z" fill="#5A6474"/>
<path d="M12.9247 14.8463C13.562 14.8463 14.0786 14.3297 14.0786 13.6924C14.0786 13.0552 13.562 12.5386 12.9247 12.5386C12.2875 12.5386 11.7709 13.0552 11.7709 13.6924C11.7709 14.3297 12.2875 14.8463 12.9247 14.8463Z" fill="#5A6474"/>
<path d="M16.771 14.8463C17.4083 14.8463 17.9249 14.3297 17.9249 13.6924C17.9249 13.0552 17.4083 12.5386 16.771 12.5386C16.1338 12.5386 15.6172 13.0552 15.6172 13.6924C15.6172 14.3297 16.1338 14.8463 16.771 14.8463Z" fill="#5A6474"/>
<path d="M5.22941 14.8463C5.86666 14.8463 6.38325 14.3297 6.38325 13.6924C6.38325 13.0552 5.86666 12.5386 5.22941 12.5386C4.59216 12.5386 4.07556 13.0552 4.07556 13.6924C4.07556 14.3297 4.59216 14.8463 5.22941 14.8463Z" fill="#5A6474"/>
<path d="M9.07316 14.8463C9.71041 14.8463 10.227 14.3297 10.227 13.6924C10.227 13.0552 9.71041 12.5386 9.07316 12.5386C8.43591 12.5386 7.91931 13.0552 7.91931 13.6924C7.91931 14.3297 8.43591 14.8463 9.07316 14.8463Z" fill="#5A6474"/>
<path d="M5.22941 18.6925C5.86666 18.6925 6.38325 18.1759 6.38325 17.5386C6.38325 16.9014 5.86666 16.3848 5.22941 16.3848C4.59216 16.3848 4.07556 16.9014 4.07556 17.5386C4.07556 18.1759 4.59216 18.6925 5.22941 18.6925Z" fill="#5A6474"/>
<path d="M9.07316 18.6925C9.71041 18.6925 10.227 18.1759 10.227 17.5386C10.227 16.9014 9.71041 16.3848 9.07316 16.3848C8.43591 16.3848 7.91931 16.9014 7.91931 17.5386C7.91931 18.1759 8.43591 18.6925 9.07316 18.6925Z" fill="#5A6474"/>
<path d="M12.9247 18.6925C13.562 18.6925 14.0786 18.1759 14.0786 17.5386C14.0786 16.9014 13.562 16.3848 12.9247 16.3848C12.2875 16.3848 11.7709 16.9014 11.7709 17.5386C11.7709 18.1759 12.2875 18.6925 12.9247 18.6925Z" fill="#5A6474"/>
<path d="M4.849 1V2.53846M17.1567 1V2.53846" stroke="#5A6474" stroke-width="2" stroke-linecap="round" stroke-linejoin="round"/>
<path d="M21 6.38525H1" stroke="#5A6474" stroke-width="2" stroke-linejoin="round"/>
</svg>
