<svg width="13" height="13" viewBox="0 0 13 13" fill="none" xmlns="http://www.w3.org/2000/svg">
<path fill-rule="evenodd" clip-rule="evenodd" d="M8.03194 6.50013L12.6826 1.84948C13.1062 1.42591 13.1062 0.741255 12.6826 0.317681C12.259 -0.105894 11.5744 -0.105894 11.1508 0.317681L6.50013 4.96833L1.84948 0.317681C1.42591 -0.105894 0.741255 -0.105894 0.317681 0.317681C-0.105894 0.741255 -0.105894 1.42591 0.317681 1.84948L4.96833 6.50013L0.317681 11.1508C-0.105894 11.5744 -0.105894 12.259 0.317681 12.6826C0.528926 12.8938 0.806254 13 1.08358 13C1.36091 13 1.63824 12.8938 1.84948 12.6826L6.50013 8.03194L11.1508 12.6826C11.362 12.8938 11.6394 13 11.9167 13C12.194 13 12.4713 12.8938 12.6826 12.6826C13.1062 12.259 13.1062 11.5744 12.6826 11.1508L8.03194 6.50013Z" fill="white"/>
</svg>
