<svg width="24" height="24" viewBox="0 0 24 24" fill="none" xmlns="http://www.w3.org/2000/svg">
<rect width="24" height="24" rx="12" fill="#F1F2F3"/>
<path fill-rule="evenodd" clip-rule="evenodd" d="M13.4141 11.9998L17.7071 7.70676C18.0981 7.31576 18.0981 6.68376 17.7071 6.29276C17.3161 5.90176 16.6841 5.90176 16.2931 6.29276L12.0001 10.5858L7.70713 6.29276C7.31613 5.90176 6.68413 5.90176 6.29313 6.29276C5.90213 6.68376 5.90213 7.31576 6.29313 7.70676L10.5861 11.9998L6.29313 16.2928C5.90213 16.6838 5.90213 17.3158 6.29313 17.7068C6.48813 17.9018 6.74413 17.9998 7.00013 17.9998C7.25613 17.9998 7.51213 17.9018 7.70713 17.7068L12.0001 13.4138L16.2931 17.7068C16.4881 17.9018 16.7441 17.9998 17.0001 17.9998C17.2561 17.9998 17.5121 17.9018 17.7071 17.7068C18.0981 17.3158 18.0981 16.6838 17.7071 16.2928L13.4141 11.9998Z" fill="#9B9B9B"/>
</svg>
