<svg width="64" height="64" viewBox="0 0 64 64" fill="none" xmlns="http://www.w3.org/2000/svg">
<path d="M32 14C26.704 14 22.1 16.476 18.812 20.126C18.54 20.092 18.296 20 18 20C13.6 20 10 23.6 10 28C6.54 30.11 4 33.672 4 38C4 44.6 9.4 50 16 50H26V46H16C11.562 46 8 42.438 8 38C7.99962 36.4278 8.4617 34.8902 9.32871 33.5787C10.1957 32.2672 11.4293 31.2396 12.876 30.624L14.25 30.064L14.062 28.564C14.0365 28.3766 14.0158 28.1885 14 28C13.9957 27.3939 14.1302 26.7949 14.3933 26.249C14.6564 25.703 15.0411 25.2245 15.5179 24.8503C15.9946 24.4761 16.5508 24.216 17.1436 24.0901C17.7365 23.9642 18.3503 23.9758 18.938 24.124L20.188 24.438L20.938 23.438C22.2455 21.7485 23.9219 20.3802 25.8391 19.4377C27.7563 18.4952 29.8636 18.0034 32 18C38.554 18 44.024 22.508 45.562 28.562L45.938 30.124L47.624 30.064C48.046 30.04 48.14 30 48 30C52.438 30 56 33.562 56 38C56 42.438 52.438 46 48 46H38V50H48C54.6 50 60 44.6 60 38C60 31.688 55.024 26.632 48.812 26.188C46.368 19.148 39.852 14 32 14ZM32 30L24 38H30V54H34V38H40L32 30Z" fill="#3661EB"/>
</svg>
