<svg width="13" height="14" viewBox="0 0 13 14" fill="none" xmlns="http://www.w3.org/2000/svg">
<path d="M11.2 0C11.5713 0 11.9274 0.1475 12.1899 0.41005C12.4525 0.672601 12.6 1.0287 12.6 1.4V9.8C12.6 10.1713 12.4525 10.5274 12.1899 10.7899C11.9274 11.0525 11.5713 11.2 11.2 11.2H9.8V12.6C9.8 12.9713 9.6525 13.3274 9.38995 13.5899C9.1274 13.8525 8.7713 14 8.4 14H1.4C1.0287 14 0.672601 13.8525 0.41005 13.5899C0.1475 13.3274 0 12.9713 0 12.6V4.2C0 3.8287 0.1475 3.4726 0.41005 3.21005C0.672601 2.9475 1.0287 2.8 1.4 2.8H2.8V1.4C2.8 1.0287 2.9475 0.672601 3.21005 0.41005C3.4726 0.1475 3.8287 0 4.2 0H11.2ZM8.4 4.2H1.4V12.6H8.4V4.2ZM4.9 9.1C5.08565 9.1 5.2637 9.17375 5.39498 9.30503C5.52625 9.4363 5.6 9.61435 5.6 9.8C5.6 9.98565 5.52625 10.1637 5.39498 10.295C5.2637 10.4263 5.08565 10.5 4.9 10.5H3.5C3.31435 10.5 3.1363 10.4263 3.00503 10.295C2.87375 10.1637 2.8 9.98565 2.8 9.8C2.8 9.61435 2.87375 9.4363 3.00503 9.30503C3.1363 9.17375 3.31435 9.1 3.5 9.1H4.9ZM11.2 1.4H4.2V2.8H8.4C8.7713 2.8 9.1274 2.9475 9.38995 3.21005C9.6525 3.4726 9.8 3.8287 9.8 4.2V9.8H11.2V1.4ZM6.3 6.3C6.47842 6.3002 6.65002 6.36852 6.77976 6.49099C6.90949 6.61347 6.98757 6.78087 6.99802 6.95898C7.00848 7.13709 6.95053 7.31247 6.83602 7.44928C6.7215 7.5861 6.55907 7.67403 6.3819 7.6951L6.3 7.7H3.5C3.32158 7.6998 3.14998 7.63148 3.02024 7.50901C2.89051 7.38653 2.81244 7.21913 2.80198 7.04102C2.79152 6.86291 2.84947 6.68753 2.96399 6.55072C3.0785 6.4139 3.24093 6.32597 3.4181 6.3049L3.5 6.3H6.3Z" fill="#9B9B9B"/>
</svg>
