<svg width="20" height="20" viewBox="0 0 20 20" fill="none" xmlns="http://www.w3.org/2000/svg">
<path d="M6.4 1H2.8C1.80589 1 1 1.80589 1 2.8V17.2C1 18.1941 1.80589 19 2.8 19H6.4C7.39411 19 8.2 18.1941 8.2 17.2V2.8C8.2 1.80589 7.39411 1 6.4 1Z" stroke="#3661EB" stroke-width="2" stroke-linecap="round" stroke-linejoin="round"/>
<path d="M17.2008 1H13.6008C12.6067 1 11.8008 1.80589 11.8008 2.8V6.4C11.8008 7.39411 12.6067 8.2 13.6008 8.2H17.2008C18.1949 8.2 19.0008 7.39411 19.0008 6.4V2.8C19.0008 1.80589 18.1949 1 17.2008 1Z" stroke="#3661EB" stroke-width="2" stroke-linecap="round" stroke-linejoin="round"/>
<path d="M17.2008 11.8003H13.6008C12.6067 11.8003 11.8008 12.6062 11.8008 13.6003V17.2003C11.8008 18.1944 12.6067 19.0003 13.6008 19.0003H17.2008C18.1949 19.0003 19.0008 18.1944 19.0008 17.2003V13.6003C19.0008 12.6062 18.1949 11.8003 17.2008 11.8003Z" stroke="#3661EB" stroke-width="2" stroke-linecap="round" stroke-linejoin="round"/>
</svg>
