<svg width="15" height="14" viewBox="0 0 15 14" fill="none" xmlns="http://www.w3.org/2000/svg">
<path d="M14.2698 3.51678L11.0872 0.335513C10.982 0.229214 10.8567 0.14483 10.7186 0.0872411C10.5805 0.0296519 10.4323 0 10.2827 0C10.133 0 9.9849 0.0296519 9.8468 0.0872411C9.70871 0.14483 9.5834 0.229214 9.47813 0.335513L0.934245 8.87582C0.828086 8.98112 0.743855 9.10641 0.686418 9.24445C0.628981 9.38249 0.599477 9.53053 0.59961 9.68003V12.8613C0.59961 13.1633 0.719631 13.4529 0.933269 13.6665C1.14691 13.88 1.43666 14 1.73879 14H4.92139C5.07095 14.0001 5.21906 13.9706 5.35715 13.9132C5.49525 13.8558 5.62059 13.7716 5.72594 13.6655L14.2698 5.1252C14.4812 4.91082 14.5996 4.62195 14.5996 4.32099C14.5996 4.02003 14.4812 3.73115 14.2698 3.51678ZM1.97375 9.44517L8.00431 3.41714L9.19334 4.60566L3.16278 10.6337L1.97375 9.44517ZM1.73879 10.8187L3.78221 12.8613H1.73879V10.8187ZM5.15635 12.6264L3.96733 11.4379L9.99789 5.40988L11.1869 6.5984L5.15635 12.6264ZM11.9915 5.79419L8.80886 2.61293L10.2827 1.13972L13.4653 4.32099L11.9915 5.79419Z" fill="#FFD233"/>
</svg>
