<svg width="20" height="16" viewBox="0 0 20 16" fill="none" xmlns="http://www.w3.org/2000/svg">
<path d="M17.3318 15.9865C17.2442 15.9866 17.1575 15.9694 17.0766 15.9359C16.9958 15.9024 16.9223 15.8531 16.8606 15.7911L2.19523 1.12575C2.0755 0.999716 2.00973 0.831898 2.01196 0.658072C2.01418 0.484247 2.08422 0.318168 2.20715 0.195244C2.33007 0.0723212 2.49615 0.00228021 2.66997 5.4696e-05C2.8438 -0.00217082 3.01162 0.0635954 3.13765 0.183331L17.803 14.8487C17.8962 14.9419 17.9596 15.0606 17.9853 15.1899C18.011 15.3192 17.9978 15.4532 17.9474 15.5749C17.8969 15.6967 17.8115 15.8008 17.702 15.874C17.5924 15.9473 17.4636 15.9864 17.3318 15.9865ZM9.66581 10.4807L7.50809 8.32301C7.49572 8.31075 7.47983 8.30267 7.46264 8.29991C7.44544 8.29714 7.42782 8.29984 7.41224 8.3076C7.39665 8.31537 7.38389 8.32783 7.37575 8.34322C7.36761 8.35861 7.3645 8.37617 7.36685 8.39342C7.45396 8.95322 7.71681 9.47082 8.11741 9.87141C8.518 10.272 9.0356 10.5349 9.5954 10.622C9.61265 10.6243 9.63021 10.6212 9.6456 10.6131C9.66099 10.6049 9.67345 10.5922 9.68121 10.5766C9.68898 10.561 9.69168 10.5434 9.68891 10.5262C9.68615 10.509 9.67807 10.4931 9.66581 10.4807ZM10.3324 5.49368L12.4935 7.65391C12.5058 7.66634 12.5217 7.67457 12.539 7.67743C12.5563 7.68029 12.574 7.67764 12.5897 7.66984C12.6054 7.66205 12.6182 7.64951 12.6264 7.63401C12.6345 7.61851 12.6376 7.60083 12.6351 7.5835C12.5482 7.02294 12.2852 6.50459 11.8841 6.10348C11.483 5.70238 10.9646 5.43934 10.4041 5.35245C10.3867 5.34977 10.369 5.35264 10.3533 5.36066C10.3377 5.36868 10.325 5.38143 10.3171 5.3971C10.3091 5.41276 10.3063 5.43053 10.3091 5.44788C10.3118 5.46523 10.32 5.48126 10.3324 5.49368Z" fill="#9B9B9B"/>
<path d="M19.7899 8.71062C19.9278 8.49413 20.0007 8.24261 20 7.98591C19.9993 7.72921 19.9249 7.47811 19.7857 7.26242C18.6833 5.55757 17.253 4.10937 15.6498 3.07405C13.8737 1.92748 11.9156 1.32129 9.98576 1.32129C8.9684 1.32269 7.95795 1.48856 6.99353 1.81249C6.96654 1.82147 6.94229 1.83721 6.92311 1.85821C6.90392 1.87921 6.89042 1.90477 6.88391 1.93246C6.87739 1.96015 6.87807 1.98905 6.88588 2.0164C6.8937 2.04375 6.90838 2.06865 6.92854 2.08872L8.89669 4.05688C8.91714 4.07736 8.94257 4.09216 8.97047 4.09984C8.99838 4.10751 9.0278 4.10778 9.05585 4.10062C9.72297 3.93805 10.4207 3.94996 11.0819 4.13521C11.7431 4.32047 12.3455 4.67283 12.831 5.15836C13.3165 5.6439 13.6689 6.24626 13.8541 6.90745C14.0394 7.56864 14.0513 8.26639 13.8887 8.93352C13.8817 8.9615 13.882 8.99084 13.8896 9.01867C13.8973 9.04649 13.9121 9.07185 13.9325 9.09225L16.7635 11.9253C16.7929 11.9548 16.8324 11.9722 16.874 11.9741C16.9157 11.9759 16.9565 11.9621 16.9885 11.9353C18.0782 11.0065 19.0225 9.9195 19.7899 8.71062ZM9.99909 11.987C9.39363 11.987 8.79605 11.8496 8.25143 11.5851C7.7068 11.3205 7.22934 10.9358 6.85505 10.4599C6.48075 9.98399 6.21939 9.42931 6.09067 8.83768C5.96194 8.24606 5.96922 7.63293 6.11195 7.04452C6.11902 7.01654 6.11871 6.9872 6.11104 6.95937C6.10338 6.93155 6.08861 6.90619 6.0682 6.88579L3.28345 4.09979C3.25392 4.07023 3.21437 4.05283 3.17262 4.05106C3.13087 4.04928 3.08999 4.06326 3.05805 4.09021C2.0419 4.95721 1.0999 6.01212 0.238726 7.24492C0.0879834 7.46128 0.00496344 7.71757 0.000215661 7.98122C-0.00453212 8.24487 0.0692067 8.50398 0.212062 8.72562C1.31238 10.4475 2.72808 11.8978 4.30669 12.919C6.08528 14.0701 7.99594 14.6534 9.98576 14.6534C11.0134 14.6507 12.0344 14.4883 13.0122 14.1722C13.0394 14.1635 13.0639 14.148 13.0834 14.127C13.1029 14.1061 13.1167 14.0805 13.1234 14.0527C13.1301 14.0249 13.1296 13.9959 13.1219 13.9684C13.1141 13.9408 13.0995 13.9158 13.0792 13.8956L11.1015 11.9182C11.0811 11.8978 11.0557 11.8831 11.0279 11.8754C11.0001 11.8677 10.9707 11.8674 10.9428 11.8745C10.6338 11.9494 10.317 11.9871 9.99909 11.987Z" fill="#9B9B9B"/>
</svg>
