<svg width="24" height="24" viewBox="0 0 24 24" fill="none" xmlns="http://www.w3.org/2000/svg">
<path d="M12 15C12.2833 15 12.521 14.904 12.713 14.712C12.905 14.52 13.0007 14.2827 13 14C13 13.7167 12.904 13.479 12.712 13.287C12.52 13.095 12.2827 12.9993 12 13C11.7167 13 11.479 13.096 11.287 13.288C11.095 13.48 10.9993 13.7173 11 14C11 14.2833 11.096 14.521 11.288 14.713C11.48 14.905 11.7173 15.0007 12 15ZM11 11H13V5H11V11ZM2 22V4C2 3.45 2.196 2.979 2.588 2.587C2.98 2.195 3.45067 1.99934 4 2H20C20.55 2 21.021 2.196 21.413 2.588C21.805 2.98 22.0007 3.45067 22 4V16C22 16.55 21.804 17.021 21.412 17.413C21.02 17.805 20.5493 18.0007 20 18H6L2 22Z" fill="white"/>
</svg>
