<svg width="15" height="9" viewBox="0 0 15 9" fill="none" xmlns="http://www.w3.org/2000/svg">
<path d="M0 8.03571C0 7.87177 0.0658481 7.71455 0.183058 7.59863C0.300269 7.48271 0.45924 7.41758 0.625 7.41758H4.375C4.54076 7.41758 4.69973 7.48271 4.81694 7.59863C4.93415 7.71455 5 7.87177 5 8.03571C5 8.19965 4.93415 8.35688 4.81694 8.4728C4.69973 8.58872 4.54076 8.65385 4.375 8.65385H0.625C0.45924 8.65385 0.300269 8.58872 0.183058 8.4728C0.0658481 8.35688 0 8.19965 0 8.03571ZM0 4.32692C0 4.16298 0.0658481 4.00576 0.183058 3.88984C0.300269 3.77392 0.45924 3.70879 0.625 3.70879H9.375C9.54076 3.70879 9.69973 3.77392 9.81694 3.88984C9.93415 4.00576 10 4.16298 10 4.32692C10 4.49086 9.93415 4.64809 9.81694 4.76401C9.69973 4.87993 9.54076 4.94505 9.375 4.94505H0.625C0.45924 4.94505 0.300269 4.87993 0.183058 4.76401C0.0658481 4.64809 0 4.49086 0 4.32692ZM0 0.618132C0 0.454193 0.0658481 0.296969 0.183058 0.181047C0.300269 0.0651245 0.45924 0 0.625 0H14.375C14.5408 0 14.6997 0.0651245 14.8169 0.181047C14.9342 0.296969 15 0.454193 15 0.618132C15 0.782071 14.9342 0.939295 14.8169 1.05522C14.6997 1.17114 14.5408 1.23626 14.375 1.23626H0.625C0.45924 1.23626 0.300269 1.17114 0.183058 1.05522C0.0658481 0.939295 0 0.782071 0 0.618132Z" fill="#9B9B9B"/>
</svg>
