<svg width="18" height="11" viewBox="0 0 18 11" fill="none" xmlns="http://www.w3.org/2000/svg">
<path fill-rule="evenodd" clip-rule="evenodd" d="M0 0.825C0 0.606196 0.0888948 0.396354 0.247129 0.241637C0.405362 0.0869193 0.619974 0 0.84375 0H17.1562C17.38 0 17.5946 0.0869193 17.7529 0.241637C17.9111 0.396354 18 0.606196 18 0.825C18 1.0438 17.9111 1.25365 17.7529 1.40836C17.5946 1.56308 17.38 1.65 17.1562 1.65H0.84375C0.619974 1.65 0.405362 1.56308 0.247129 1.40836C0.0888948 1.25365 0 1.0438 0 0.825ZM0 5.5C0 5.2812 0.0888948 5.07135 0.247129 4.91664C0.405362 4.76192 0.619974 4.675 0.84375 4.675H17.1562C17.38 4.675 17.5946 4.76192 17.7529 4.91664C17.9111 5.07135 18 5.2812 18 5.5C18 5.7188 17.9111 5.92865 17.7529 6.08336C17.5946 6.23808 17.38 6.325 17.1562 6.325H0.84375C0.619974 6.325 0.405362 6.23808 0.247129 6.08336C0.0888948 5.92865 0 5.7188 0 5.5ZM0.84375 9.35C0.619974 9.35 0.405362 9.43692 0.247129 9.59164C0.0888948 9.74636 0 9.9562 0 10.175C0 10.3938 0.0888948 10.6036 0.247129 10.7584C0.405362 10.9131 0.619974 11 0.84375 11H11.5312C11.755 11 11.9696 10.9131 12.1279 10.7584C12.2861 10.6036 12.375 10.3938 12.375 10.175C12.375 9.9562 12.2861 9.74636 12.1279 9.59164C11.9696 9.43692 11.755 9.35 11.5312 9.35H0.84375Z" fill="#5A6474"/>
</svg>
