<svg width="24" height="24" viewBox="0 0 24 24" fill="none" xmlns="http://www.w3.org/2000/svg">
<path d="M6 17H18L14.25 12L11.25 16L9 13L6 17ZM4 21C3.45 21 2.979 20.804 2.587 20.412C2.195 20.02 1.99934 19.5493 2 19V7C2 6.45 2.196 5.979 2.588 5.587C2.98 5.195 3.45067 4.99933 4 5H7.15L9 3H15L16.85 5H20C20.55 5 21.021 5.196 21.413 5.588C21.805 5.98 22.0007 6.45067 22 7V19C22 19.55 21.804 20.021 21.412 20.413C21.02 20.805 20.5493 21.0007 20 21H4ZM20 19V7H15.95L14.125 5H9.875L8.05 7H4V19H20Z" fill="white"/>
</svg>
