<svg width="13" height="19" viewBox="0 0 13 19" fill="none" xmlns="http://www.w3.org/2000/svg">
<path d="M6.17425 0.0368328C5.52593 0.124372 5.04356 0.303259 4.53802 0.634387C3.81638 1.11015 3.23367 1.89039 3.0137 2.67444C2.82075 3.35954 2.80532 4.94667 2.98669 5.64699C3.25682 6.70127 3.96303 7.58048 4.92007 8.05243C6.34791 8.75656 8.01115 8.49394 9.14185 7.39017C9.66282 6.87635 9.95224 6.37776 10.1375 5.68125C10.3266 4.95428 10.2996 3.25677 10.0873 2.59071C9.66282 1.27 8.52054 0.291841 7.14673 0.0710878C6.61418 -0.0164518 6.56015 -0.0164518 6.17425 0.0368328Z" fill="#3661EB"/>
<path d="M5.7998 9.33188C5.61071 9.41562 5.49108 9.57928 5.45635 9.80764C5.42933 9.98653 5.47178 10.1007 5.71104 10.4737C5.96188 10.8695 5.96574 10.9 5.86541 11.939L5.77665 12.8525L5.99661 13.4386C6.31305 14.2874 6.30919 14.2798 6.59476 14.2798C6.69124 14.2798 6.76456 14.2531 6.81087 14.2037C6.89963 14.1047 7.33184 12.9248 7.33184 12.7764C7.33184 12.7117 7.29711 12.3882 7.25466 12.0532C7.11959 10.9761 7.13889 10.8239 7.50163 10.3253C7.656 10.1083 7.67915 10.055 7.67915 9.88376C7.67915 9.6554 7.57881 9.48032 7.37429 9.3433C7.2508 9.25957 7.20449 9.25576 6.60248 9.25576C6.0545 9.25576 5.93873 9.26718 5.7998 9.33188Z" fill="#3661EB"/>
<path d="M3.82044 9.69795C3.63907 9.77026 2.90971 10.0443 2.19965 10.3107C1.48959 10.5733 0.818115 10.8284 0.706203 10.8778C0.39748 11.011 0.173656 11.2622 0.0771806 11.5743C0.00385903 11.8255 0 11.9321 0 15.3005V18.764L0.11963 18.882L0.23926 19H6.5179H12.8004L12.893 18.901L12.9856 18.8021L12.9972 15.3347C13.0049 12.9103 12.9972 11.8065 12.9663 11.6695C12.9123 11.4183 12.7155 11.1899 12.4299 11.0491C12.3103 10.9882 11.8742 10.7979 11.4613 10.6266C11.0484 10.4554 10.3036 10.1433 9.80966 9.93773C9.3157 9.72839 8.87191 9.56093 8.82174 9.56093C8.77158 9.56093 8.70983 9.58376 8.68668 9.61041C8.65195 9.65608 7.74122 13.2224 7.25498 15.213C6.83048 16.9714 6.61438 17.763 6.56035 17.763C6.52176 17.763 6.47545 17.645 6.41757 17.3824C6.3674 17.1731 6.15515 16.3319 5.94291 15.5174C5.73066 14.6991 5.31389 13.0587 5.01288 11.8636C4.71574 10.6723 4.45332 9.66369 4.43403 9.62944C4.38 9.52667 4.19477 9.54951 3.82044 9.69795Z" fill="#3661EB"/>
</svg>
