<svg width="13" height="19" viewBox="0 0 13 19" fill="none" xmlns="http://www.w3.org/2000/svg">
<path d="M6.17327 0.0368328C5.52496 0.124372 5.04258 0.303259 4.53705 0.634387C3.81541 1.11015 3.23269 1.89039 3.01273 2.67444C2.81978 3.35954 2.80434 4.94667 2.98571 5.64699C3.25585 6.70127 3.96205 7.58048 4.91909 8.05243C6.34693 8.75656 8.01017 8.49394 9.14087 7.39017C9.66184 6.87635 9.95127 6.37776 10.1365 5.68125C10.3256 4.95428 10.2986 3.25677 10.0863 2.59071C9.66184 1.27 8.51957 0.291841 7.14575 0.0710878C6.6132 -0.0164518 6.55918 -0.0164518 6.17327 0.0368328Z" fill="#9B9B9B"/>
<path d="M5.79883 9.33188C5.60973 9.41562 5.4901 9.57928 5.45537 9.80764C5.42836 9.98653 5.47081 10.1007 5.71007 10.4737C5.9609 10.8695 5.96476 10.9 5.86443 11.939L5.77567 12.8525L5.99564 13.4386C6.31208 14.2874 6.30822 14.2798 6.59379 14.2798C6.69026 14.2798 6.76358 14.2531 6.80989 14.2037C6.89865 14.1047 7.33086 12.9248 7.33086 12.7764C7.33086 12.7117 7.29613 12.3882 7.25368 12.0532C7.11861 10.9761 7.13791 10.8239 7.50066 10.3253C7.65502 10.1083 7.67817 10.055 7.67817 9.88376C7.67817 9.6554 7.57784 9.48032 7.37331 9.3433C7.24982 9.25957 7.20351 9.25576 6.6015 9.25576C6.05352 9.25576 5.93775 9.26718 5.79883 9.33188Z" fill="#9B9B9B"/>
<path d="M3.82044 9.69795C3.63907 9.77026 2.90971 10.0443 2.19965 10.3107C1.48959 10.5733 0.818115 10.8284 0.706203 10.8778C0.39748 11.011 0.173656 11.2622 0.0771806 11.5743C0.00385903 11.8255 0 11.9321 0 15.3005V18.764L0.11963 18.882L0.23926 19H6.5179H12.8004L12.893 18.901L12.9856 18.8021L12.9972 15.3347C13.0049 12.9103 12.9972 11.8065 12.9663 11.6695C12.9123 11.4183 12.7155 11.1899 12.4299 11.0491C12.3103 10.9882 11.8742 10.7979 11.4613 10.6266C11.0484 10.4554 10.3036 10.1433 9.80966 9.93773C9.3157 9.72839 8.87191 9.56093 8.82174 9.56093C8.77158 9.56093 8.70983 9.58376 8.68668 9.61041C8.65195 9.65608 7.74122 13.2224 7.25498 15.213C6.83048 16.9714 6.61438 17.763 6.56035 17.763C6.52176 17.763 6.47545 17.645 6.41757 17.3824C6.3674 17.1731 6.15515 16.3319 5.94291 15.5174C5.73066 14.6991 5.31389 13.0587 5.01288 11.8636C4.71574 10.6723 4.45332 9.66369 4.43403 9.62944C4.38 9.52667 4.19477 9.54951 3.82044 9.69795Z" fill="#9B9B9B"/>
</svg>
