<svg width="25" height="24" viewBox="0 0 25 24" fill="none" xmlns="http://www.w3.org/2000/svg">
<path d="M9.275 11C8.89167 11 8.6 10.829 8.4 10.487C8.2 10.145 8.20834 9.80772 8.425 9.47505L12.15 3.40005C12.35 3.08338 12.6333 2.92505 13 2.92505C13.3667 2.92505 13.65 3.08338 13.85 3.40005L17.575 9.47505C17.7917 9.80838 17.8 10.146 17.6 10.488C17.4 10.83 17.1083 11.0007 16.725 11H9.275ZM18.5 22C17.25 22 16.1873 21.5624 15.312 20.687C14.4367 19.8117 13.9993 18.7494 14 17.5C14 16.25 14.4377 15.1874 15.313 14.312C16.1883 13.4367 17.2507 12.9994 18.5 13C19.75 13 20.8127 13.4377 21.688 14.313C22.5633 15.1884 23.0007 16.2507 23 17.5C23 18.75 22.5623 19.8127 21.687 20.688C20.8117 21.5634 19.7493 22.0007 18.5 22ZM5 21.5C4.71667 21.5 4.479 21.404 4.287 21.212C4.095 21.02 3.99934 20.7827 4 20.5V14.5C4 14.2167 4.096 13.979 4.288 13.787C4.48 13.595 4.71734 13.4994 5 13.5H11C11.2833 13.5 11.521 13.596 11.713 13.788C11.905 13.98 12.0007 14.2174 12 14.5V20.5C12 20.7834 11.904 21.021 11.712 21.213C11.52 21.405 11.2827 21.5007 11 21.5H5ZM18.5 20C19.2 20 19.7917 19.7584 20.275 19.275C20.7583 18.7917 21 18.2 21 17.5C21 16.8 20.7583 16.2084 20.275 15.725C19.7917 15.2417 19.2 15 18.5 15C17.8 15 17.2083 15.2417 16.725 15.725C16.2417 16.2084 16 16.8 16 17.5C16 18.2 16.2417 18.7917 16.725 19.275C17.2083 19.7584 17.8 20 18.5 20ZM6 19.5H10V15.5H6V19.5ZM11.05 9.00005H14.95L13 5.85005L11.05 9.00005Z" fill="#9B9B9B"/>
</svg>
