<svg width="18" height="19" viewBox="0 0 18 19" fill="none" xmlns="http://www.w3.org/2000/svg">
<path d="M7.60146 0.018301C5.63029 0.204031 4.49743 1.2367 4.13492 3.17573C4.04052 3.68463 4.02541 4.7953 4.10093 5.46022C4.20289 6.35172 4.41436 7.33981 4.6938 8.22761C4.90148 8.88138 5.19225 9.22312 5.91728 9.66145C6.40818 9.9549 6.52147 10.1072 6.52147 10.4638C6.52147 10.7387 6.40818 10.943 6.18161 11.0879C5.8984 11.2662 5.41505 11.3479 4.00275 11.4593C2.72263 11.5596 2.06557 11.9422 1.35943 12.9897C1.06866 13.4244 0.936493 13.7067 0.78167 14.2081C0.521113 15.0811 0.222795 16.8158 0.0641951 18.4057C0.041538 18.6397 0.0188809 18.87 0.0113285 18.9146L0 19H4.81463H9.62927L8.59459 17.9673C8.02439 17.4027 7.49195 16.8418 7.41642 16.7229C7.12943 16.2995 7.01237 15.9206 7.01237 15.434C7.01237 14.7765 7.22761 14.2899 7.74873 13.781C8.00928 13.5209 8.15278 13.4132 8.3718 13.3092C9.07039 12.9712 9.74255 12.9712 10.4449 13.3055C10.7659 13.4541 10.849 13.5209 11.3172 13.9704L11.8383 14.4719L12.9108 13.3092C13.4961 12.6666 14.0134 12.1057 14.0512 12.0611L14.1229 11.9794L13.8359 11.8494C13.3828 11.6451 13.0127 11.5708 12.2235 11.5336C11.3776 11.4928 10.9925 11.4147 10.5733 11.203C10.2108 11.021 10.0333 10.7758 10.0333 10.4527C10.0333 10.1406 10.0824 10.0849 10.7508 9.66888C11.2266 9.37171 11.6118 8.91853 11.7704 8.46906C12.08 7.58869 12.3519 6.33687 12.4501 5.31906C12.5143 4.66157 12.4803 3.6512 12.3746 3.12744C12.0158 1.33327 10.9736 0.334044 9.16479 0.0591621C8.80228 0.00344276 7.98663 -0.0188446 7.60146 0.018301Z" fill="#9B9B9B"/>
<path d="M16.527 11.5515C16.4137 11.585 16.24 11.663 16.1418 11.7298C16.0474 11.793 15.0807 12.7996 13.997 13.966C12.9132 15.1287 12.0107 16.0982 11.9918 16.1205C11.9692 16.1428 11.6444 15.8493 11.1157 15.333C10.655 14.8835 10.2095 14.4712 10.1226 14.4192C9.60904 14.1072 8.91045 14.2781 8.55171 14.8018C8.28738 15.1919 8.2836 15.6562 8.54038 16.0462C8.60835 16.1465 9.25785 16.8114 9.97911 17.5209C11.4518 18.9622 11.4707 18.9771 11.9389 18.9771C12.2184 18.9771 12.3732 18.9325 12.6149 18.7802C12.698 18.7282 13.8988 17.4875 15.2809 16.0239C17.1048 14.096 17.8222 13.3123 17.8864 13.1822C18.0715 12.7959 18.0262 12.3093 17.7656 11.923C17.5428 11.5961 16.9877 11.4289 16.527 11.5515Z" fill="#9B9B9B"/>
<path d="M15.637 17.451C15.2178 17.8856 14.7118 18.4094 14.5079 18.6174L14.1416 19H15.4028H16.6641L16.547 17.8485C16.4828 17.217 16.4224 16.6932 16.4111 16.6821C16.4035 16.6709 16.0524 17.0201 15.637 17.451Z" fill="#9B9B9B"/>
</svg>
