<svg width="18" height="19" viewBox="0 0 18 19" fill="none" xmlns="http://www.w3.org/2000/svg">
<path d="M7.60146 0.018301C5.63029 0.204031 4.49743 1.2367 4.13492 3.17573C4.04052 3.68463 4.02541 4.7953 4.10093 5.46022C4.20289 6.35172 4.41436 7.33981 4.6938 8.22761C4.90148 8.88138 5.19225 9.22312 5.91728 9.66145C6.40818 9.9549 6.52147 10.1072 6.52147 10.4638C6.52147 10.7387 6.40818 10.943 6.18161 11.0879C5.8984 11.2662 5.41505 11.3479 4.00275 11.4593C2.72263 11.5596 2.06557 11.9422 1.35943 12.9897C1.06866 13.4244 0.936493 13.7067 0.78167 14.2081C0.521113 15.0811 0.222795 16.8158 0.0641951 18.4057C0.041538 18.6397 0.0188809 18.87 0.0113285 18.9146L0 19H4.81463H9.62927L8.59459 17.9673C8.02439 17.4027 7.49195 16.8418 7.41642 16.7229C7.12943 16.2995 7.01237 15.9206 7.01237 15.434C7.01237 14.7765 7.22761 14.2899 7.74873 13.781C8.00928 13.5209 8.15278 13.4132 8.3718 13.3092C9.07039 12.9712 9.74255 12.9712 10.4449 13.3055C10.7659 13.4541 10.849 13.5209 11.3172 13.9704L11.8383 14.4719L12.9108 13.3092C13.4961 12.6666 14.0134 12.1057 14.0512 12.0611L14.1229 11.9794L13.8359 11.8494C13.3828 11.6451 13.0127 11.5708 12.2235 11.5336C11.3776 11.4928 10.9925 11.4147 10.5733 11.203C10.2108 11.021 10.0333 10.7758 10.0333 10.4527C10.0333 10.1406 10.0824 10.0849 10.7508 9.66888C11.2266 9.37171 11.6118 8.91853 11.7704 8.46906C12.08 7.58869 12.3519 6.33687 12.4501 5.31906C12.5143 4.66157 12.4803 3.6512 12.3746 3.12744C12.0158 1.33327 10.9736 0.334044 9.16479 0.0591621C8.80228 0.00344276 7.98663 -0.0188446 7.60146 0.018301Z" fill="#3661EB"/>
<path d="M16.528 11.551C16.4147 11.5845 16.241 11.6625 16.1428 11.7293C16.0484 11.7925 15.0817 12.7992 13.9979 13.9655C12.9142 15.1282 12.0117 16.0977 11.9928 16.12C11.9701 16.1423 11.6454 15.8489 11.1167 15.3325C10.656 14.8831 10.2104 14.4707 10.1236 14.4187C9.61002 14.1067 8.91142 14.2776 8.55269 14.8013C8.28835 15.1914 8.28458 15.6557 8.54136 16.0457C8.60933 16.146 9.25883 16.8109 9.98008 17.5204C11.4528 18.9617 11.4717 18.9766 11.9399 18.9766C12.2194 18.9766 12.3742 18.932 12.6159 18.7797C12.6989 18.7277 13.8998 17.487 15.2818 16.0234C17.1057 14.0956 17.8232 13.3118 17.8874 13.1818C18.0724 12.7954 18.0271 12.3088 17.7666 11.9225C17.5438 11.5956 16.9887 11.4285 16.528 11.551Z" fill="#3661EB"/>
<path d="M15.6379 17.451C15.2188 17.8856 14.7128 18.4094 14.5089 18.6174L14.1426 19H15.4038H16.6651L16.548 17.8485C16.4838 17.217 16.4234 16.6932 16.4121 16.6821C16.4045 16.6709 16.0533 17.0201 15.6379 17.451Z" fill="#3661EB"/>
</svg>
