<svg width="48" height="48" viewBox="0 0 48 48" fill="none" xmlns="http://www.w3.org/2000/svg">
<circle cx="24.0003" cy="24.0001" r="23.3333" fill="#EBF0FE"/>
<path d="M13 16V17.7H31.6154V31.3H19.7692V33H35V31.3H33.3077V16H13ZM16.3863 18.55C15.4895 18.5531 14.6302 18.9123 13.9959 19.5492C13.3615 20.1861 13.0036 21.0491 13 21.95C13 23.8191 14.5265 25.35 16.3863 25.35C17.2827 25.3464 18.1414 24.987 18.7751 24.3501C19.4087 23.7132 19.7661 22.8505 19.7692 21.95C19.7692 20.0826 18.2445 18.55 16.3863 18.55ZM21.4615 19.4V21.1H25.6923V19.4H21.4615ZM27.3846 19.4V21.1H29.9231V19.4H27.3846ZM16.3863 20.25C17.3289 20.25 18.0769 21.0006 18.0769 21.95C18.0769 22.902 17.3298 23.65 16.3863 23.65C15.4386 23.65 14.6923 22.902 14.6923 21.95C14.6923 21.0006 15.4395 20.25 16.3863 20.25ZM21.4615 22.8V24.5H29.9231V22.8H21.4615ZM13 26.2V33H14.6923V27.9H17.2308V33H18.9231V28.4593L20.6695 29.3875C21.1645 29.651 21.7594 29.6502 22.2535 29.3875V29.3892L25.2405 27.8023L24.451 26.2978L21.4632 27.8847L18.8435 26.4958C18.4779 26.3018 18.0707 26.2002 17.6572 26.2H13Z" fill="#3661EB"/>
</svg>
