<svg width="24" height="24" viewBox="0 0 24 24" fill="none" xmlns="http://www.w3.org/2000/svg">
<path d="M19 12.25C19 12.0179 18.9078 11.7954 18.7437 11.6313C18.5796 11.4672 18.3571 11.375 18.125 11.375L11.4837 11.375L13.4963 9.37125C13.5783 9.28991 13.6434 9.19313 13.6878 9.0865C13.7322 8.97988 13.7551 8.86551 13.7551 8.75C13.7551 8.63449 13.7322 8.52012 13.6878 8.4135C13.6434 8.30687 13.5783 8.21009 13.4963 8.12875C13.4149 8.04674 13.3181 7.98164 13.2115 7.93722C13.1049 7.8928 12.9905 7.86993 12.875 7.86993C12.7595 7.86993 12.6451 7.8928 12.5385 7.93722C12.4319 7.98164 12.3351 8.04674 12.2537 8.12875L8.75375 11.6287C8.67409 11.712 8.61164 11.8101 8.57 11.9175C8.48248 12.1305 8.48248 12.3695 8.57 12.5825C8.61164 12.6899 8.67409 12.788 8.75375 12.8713L12.2537 16.3713C12.3353 16.4528 12.4322 16.5175 12.5388 16.5617C12.6454 16.6059 12.7596 16.6286 12.875 16.6286C12.9904 16.6286 13.1046 16.6059 13.2112 16.5617C13.3178 16.5175 13.4147 16.4528 13.4963 16.3713C13.5778 16.2897 13.6425 16.1928 13.6867 16.0862C13.7309 15.9796 13.7536 15.8654 13.7536 15.75C13.7536 15.6346 13.7309 15.5204 13.6867 15.4138C13.6425 15.3072 13.5778 15.2103 13.4963 15.1287L11.4837 13.125H18.125C18.3571 13.125 18.5796 13.0328 18.7437 12.8687C18.9078 12.7046 19 12.4821 19 12.25ZM7.625 21H16.375C17.0712 21 17.7389 20.7234 18.2312 20.2312C18.7234 19.7389 19 19.0712 19 18.375V15.75C19 15.5179 18.9078 15.2954 18.7437 15.1313C18.5796 14.9672 18.3571 14.875 18.125 14.875C17.8929 14.875 17.6704 14.9672 17.5063 15.1313C17.3422 15.2954 17.25 15.5179 17.25 15.75V18.375C17.25 18.6071 17.1578 18.8296 16.9937 18.9937C16.8296 19.1578 16.6071 19.25 16.375 19.25H7.625C7.39294 19.25 7.17037 19.1578 7.00628 18.9937C6.84219 18.8296 6.75 18.6071 6.75 18.375L6.75 6.125C6.75 5.89294 6.84219 5.67037 7.00628 5.50628C7.17037 5.34219 7.39294 5.25 7.625 5.25L16.375 5.25C16.6071 5.25 16.8296 5.34219 16.9937 5.50628C17.1578 5.67037 17.25 5.89294 17.25 6.125V8.75C17.25 8.98206 17.3422 9.20462 17.5063 9.36872C17.6704 9.53281 17.8929 9.625 18.125 9.625C18.3571 9.625 18.5796 9.53281 18.7437 9.36872C18.9078 9.20462 19 8.98206 19 8.75L19 6.125C19 5.42881 18.7234 4.76113 18.2312 4.26884C17.7389 3.77656 17.0712 3.5 16.375 3.5H7.625C6.92881 3.5 6.26113 3.77656 5.76884 4.26884C5.27656 4.76113 5 5.42881 5 6.125L5 18.375C5 19.0712 5.27656 19.7389 5.76884 20.2312C6.26113 20.7234 6.92881 21 7.625 21Z" fill="#FF4530"/>
</svg>
