<svg width="48" height="48" viewBox="0 0 48 48" fill="none" xmlns="http://www.w3.org/2000/svg">
<circle cx="24.0003" cy="24.0001" r="23.3333" fill="#EBF0FE"/>
<path d="M23.7293 13.0407C23.0227 13.1374 22.4969 13.3351 21.9459 13.7011C21.1593 14.2268 20.5242 15.0891 20.2844 15.9556C20.0741 16.7127 20.0573 18.4667 20.255 19.2407C20.5494 20.4058 21.3192 21.3775 22.3623 21.899C23.9186 22.6772 25.7315 22.387 26.9639 21.1671C27.5318 20.5993 27.8472 20.0483 28.0491 19.2785C28.2552 18.4751 28.2258 16.5992 27.9945 15.8631C27.5318 14.4035 26.2867 13.3225 24.7893 13.0785C24.2088 12.9818 24.15 12.9818 23.7293 13.0407Z" fill="#3661EB"/>
<path d="M23.3216 23.3166C23.1155 23.4091 22.9851 23.59 22.9472 23.8423C22.9178 24.04 22.964 24.1662 23.2248 24.5784C23.4982 25.0159 23.5024 25.0495 23.3931 26.1978L23.2963 27.2073L23.5361 27.8551C23.881 28.7931 23.8768 28.7847 24.1881 28.7847C24.2932 28.7847 24.3731 28.7552 24.4236 28.7005C24.5204 28.5912 24.9915 27.2872 24.9915 27.1232C24.9915 27.0517 24.9536 26.6942 24.9073 26.324C24.7601 25.1336 24.7811 24.9654 25.1765 24.4144C25.3448 24.1746 25.37 24.1157 25.37 23.9265C25.37 23.6741 25.2607 23.4806 25.0377 23.3292C24.9031 23.2366 24.8527 23.2324 24.1965 23.2324C23.5992 23.2324 23.473 23.245 23.3216 23.3166Z" fill="#3661EB"/>
<path d="M21.1642 23.7199C20.9665 23.7999 20.1715 24.1027 19.3976 24.3972C18.6236 24.6874 17.8917 24.9692 17.7697 25.0239C17.4332 25.1711 17.1893 25.4487 17.0841 25.7936C17.0042 26.0712 17 26.189 17 29.9115V33.7392L17.1304 33.8696L17.2608 34H24.1043H30.9521L31.053 33.8906L31.154 33.7813L31.1666 29.9494C31.175 27.27 31.1666 26.0502 31.133 25.8988C31.0741 25.6212 30.8596 25.3688 30.5483 25.2132C30.4179 25.1459 29.9426 24.9356 29.4925 24.7463C29.0425 24.557 28.2307 24.2121 27.6923 23.9849C27.1539 23.7536 26.6701 23.5685 26.6155 23.5685C26.5608 23.5685 26.4935 23.5938 26.4682 23.6232C26.4304 23.6737 25.4377 27.6149 24.9077 29.8148C24.445 31.7581 24.2095 32.633 24.1506 32.633C24.1085 32.633 24.0581 32.5026 23.995 32.2123C23.9403 31.981 23.709 31.0514 23.4776 30.1513C23.2463 29.2469 22.792 27.4341 22.4639 26.1133C22.14 24.7967 21.854 23.6821 21.833 23.6442C21.7741 23.5307 21.5722 23.5559 21.1642 23.7199Z" fill="#3661EB"/>
</svg>
