<svg width="13" height="17" viewBox="0 0 13 17" fill="none" xmlns="http://www.w3.org/2000/svg">
<g clip-path="url(#clip0_4526_5290)">
<path d="M11.375 0H1.625C0.727865 0 0 0.713867 0 1.59375V15.4062C0 16.2861 0.727865 17 1.625 17H11.375C12.2721 17 13 16.2861 13 15.4062V1.59375C13 0.713867 12.2721 0 11.375 0ZM4.875 1.0625H8.125C8.42292 1.0625 8.66667 1.30156 8.66667 1.59375C8.66667 1.88594 8.42292 2.125 8.125 2.125H4.875C4.57708 2.125 4.33333 1.88594 4.33333 1.59375C4.33333 1.30156 4.57708 1.0625 4.875 1.0625ZM6.5 5.3125C7.69505 5.3125 8.66667 6.26543 8.66667 7.4375C8.66667 8.60957 7.69505 9.5625 6.5 9.5625C5.30495 9.5625 4.33333 8.60957 4.33333 7.4375C4.33333 6.26543 5.30495 5.3125 6.5 5.3125ZM10.2917 13.175C10.2917 13.527 9.95313 13.8125 9.53333 13.8125H3.46667C3.04688 13.8125 2.70833 13.527 2.70833 13.175V12.5375C2.70833 11.4816 3.72734 10.625 4.98333 10.625H5.1526C5.56901 10.7943 6.02266 10.8906 6.5 10.8906C6.97734 10.8906 7.43438 10.7943 7.8474 10.625H8.01667C9.27266 10.625 10.2917 11.4816 10.2917 12.5375V13.175Z" fill="#277FFE"/>
</g>
<defs>
<clipPath id="clip0_4526_5290">
<rect width="13" height="17" fill="white"/>
</clipPath>
</defs>
</svg>
