<svg width="24" height="24" viewBox="0 0 24 24" fill="none" xmlns="http://www.w3.org/2000/svg">
<rect width="24" height="24" rx="12" fill="#F1F2F3"/>
<path fill-rule="evenodd" clip-rule="evenodd" d="M13.0001 10.9997L13.0001 4.92844C13.0001 4.37549 12.5532 3.9286 12.0002 3.9286C11.4473 3.9286 11.0004 4.37549 11.0004 4.92844L11.0004 10.9997L4.92915 10.9997C4.3762 10.9997 3.92931 11.4466 3.92931 11.9995C3.92931 12.5525 4.3762 12.9994 4.92915 12.9994L11.0004 12.9994L11.0004 19.0706C11.0004 19.6235 11.4473 20.0704 12.0002 20.0704C12.276 20.0704 12.5263 19.9587 12.7073 19.7777C12.8883 19.5967 13.0001 19.3464 13.0001 19.0706L13.0001 12.9994L19.0713 12.9994C19.3471 12.9994 19.5974 12.8876 19.7784 12.7066C19.9594 12.5256 20.0711 12.2753 20.0711 11.9995C20.0711 11.4466 19.6242 10.9997 19.0713 10.9997L13.0001 10.9997Z" fill="#9B9B9B"/>
</svg>
