<svg width="15" height="16" viewBox="0 0 15 16" fill="none" xmlns="http://www.w3.org/2000/svg">
<path d="M12.7946 2.20668C12.008 1.41381 11.0532 0.80757 10.0006 0.432737C8.94809 0.0579029 7.82469 -0.0759513 6.71341 0.0410589C3.26927 0.387934 0.435129 3.18168 0.0503613 6.62231C-0.465791 11.1692 3.05343 15.0036 7.49233 15.0036C8.90951 15.0036 10.2976 14.6019 11.4953 13.8451C12.6931 13.0884 13.6513 12.0077 14.2586 10.7286C14.5589 10.1004 14.1085 9.37856 13.414 9.37856C13.0668 9.37856 12.7383 9.56606 12.5882 9.87543C12.0433 11.0464 11.1114 11.9942 9.94914 12.5593C8.78691 13.1245 7.46531 13.2725 6.20665 12.9786C4.12327 12.5192 2.44343 10.8223 2.00235 8.74106C1.81694 7.91818 1.81909 7.06419 2.00864 6.24225C2.19818 5.42031 2.57028 4.65145 3.09739 3.99255C3.62451 3.33365 4.29317 2.80156 5.05391 2.43564C5.81465 2.06972 6.648 1.87933 7.49233 1.87856C9.05017 1.87856 10.4391 2.52543 11.4526 3.54731L10.0356 4.96293C9.44433 5.55356 9.85725 6.56606 10.6925 6.56606H14.0615C14.5777 6.56606 15 6.14418 15 5.62856V2.26293C15 1.42856 13.9865 1.00668 13.3952 1.59731L12.7946 2.20668Z" fill="#9B9B9B"/>
</svg>
