<svg width="24" height="24" viewBox="0 0 24 24" fill="none" xmlns="http://www.w3.org/2000/svg">
<path fill-rule="evenodd" clip-rule="evenodd" d="M13.4142 2.10022C13.0392 1.72528 12.5306 1.51465 12.0002 1.51465C11.4699 1.51465 10.9613 1.72528 10.5862 2.10022L8.68622 4.00022H6.00022C5.46979 4.00022 4.96108 4.21093 4.58601 4.58601C4.21093 4.96108 4.00022 5.46979 4.00022 6.00022V8.68622L2.10022 10.5862C1.72528 10.9613 1.51465 11.4699 1.51465 12.0002C1.51465 12.5306 1.72528 13.0392 2.10022 13.4142L4.00022 15.3142V18.0002C4.00022 18.5307 4.21093 19.0394 4.58601 19.4144C4.96108 19.7895 5.46979 20.0002 6.00022 20.0002H8.68622L10.5862 21.9002C10.9613 22.2752 11.4699 22.4858 12.0002 22.4858C12.5306 22.4858 13.0392 22.2752 13.4142 21.9002L15.3142 20.0002H18.0002C18.5307 20.0002 19.0394 19.7895 19.4144 19.4144C19.7895 19.0394 20.0002 18.5307 20.0002 18.0002V15.3142L21.9002 13.4142C22.2752 13.0392 22.4858 12.5306 22.4858 12.0002C22.4858 11.4699 22.2752 10.9613 21.9002 10.5862L20.0002 8.68622V6.00022C20.0002 5.46979 19.7895 4.96108 19.4144 4.58601C19.0394 4.21093 18.5307 4.00022 18.0002 4.00022H15.3142L13.4142 2.10022ZM12.0002 3.51622L13.9002 5.41622C14.2753 5.79034 14.7835 6.00037 15.3132 6.00022H18.0002V8.68622C18.0001 8.94901 18.0519 9.20924 18.1524 9.45204C18.253 9.69483 18.4004 9.91543 18.5862 10.1012L20.4862 12.0012L18.5862 13.9002C18.2111 14.2752 18.0003 14.7838 18.0002 15.3142V18.0002H15.3142C15.0514 18.0001 14.7912 18.0519 14.5484 18.1524C14.3056 18.253 14.085 18.4004 13.8992 18.5862L11.9992 20.4862L10.1002 18.5862C9.72524 18.2111 9.21661 18.0003 8.68622 18.0002H6.00022V15.3142C6.0003 15.0514 5.94858 14.7912 5.84803 14.5484C5.74748 14.3056 5.60007 14.085 5.41422 13.8992L3.51422 12.0002L5.41422 10.1002C5.78907 9.72548 5.99984 9.21726 6.00022 8.68722V6.00022H8.68622C9.21661 6.00011 9.72524 5.78932 10.1002 5.41422L12.0002 3.51422V3.51622ZM10.0002 12.0002C10.0002 11.4698 10.2109 10.9611 10.586 10.586C10.9611 10.2109 11.4698 10.0002 12.0002 10.0002C12.5307 10.0002 13.0394 10.2109 13.4144 10.586C13.7895 10.9611 14.0002 11.4698 14.0002 12.0002C14.0002 12.5307 13.7895 13.0394 13.4144 13.4144C13.0394 13.7895 12.5307 14.0002 12.0002 14.0002C11.4698 14.0002 10.9611 13.7895 10.586 13.4144C10.2109 13.0394 10.0002 12.5307 10.0002 12.0002ZM12.0002 8.00022C10.9394 8.00022 9.92194 8.42165 9.17179 9.17179C8.42165 9.92194 8.00022 10.9394 8.00022 12.0002C8.00022 13.0611 8.42165 14.0785 9.17179 14.8286C9.92194 15.5788 10.9394 16.0002 12.0002 16.0002C13.0611 16.0002 14.0785 15.5788 14.8286 14.8286C15.5788 14.0785 16.0002 13.0611 16.0002 12.0002C16.0002 10.9394 15.5788 9.92194 14.8286 9.17179C14.0785 8.42165 13.0611 8.00022 12.0002 8.00022Z" fill="#9B9B9B"/>
</svg>
