<svg width="14" height="14" viewBox="0 0 14 14" fill="none" xmlns="http://www.w3.org/2000/svg">
<path d="M5.27493 5.54167V10.7917C5.27493 10.8767 5.24754 10.9466 5.19275 11.0013C5.13796 11.056 5.06795 11.0833 4.98273 11.0833H4.39831C4.31308 11.0833 4.24308 11.056 4.18829 11.0013C4.1335 10.9466 4.1061 10.8767 4.1061 10.7917V5.54167C4.1061 5.4566 4.1335 5.38672 4.18829 5.33203C4.24308 5.27734 4.31308 5.25 4.39831 5.25H4.98273C5.06795 5.25 5.13796 5.27734 5.19275 5.33203C5.24754 5.38672 5.27493 5.4566 5.27493 5.54167ZM7.6126 5.54167V10.7917C7.6126 10.8767 7.5852 10.9466 7.53041 11.0013C7.47562 11.056 7.40562 11.0833 7.32039 11.0833H6.73597C6.65075 11.0833 6.58074 11.056 6.52595 11.0013C6.47116 10.9466 6.44376 10.8767 6.44376 10.7917V5.54167C6.44376 5.4566 6.47116 5.38672 6.52595 5.33203C6.58074 5.27734 6.65075 5.25 6.73597 5.25H7.32039C7.40562 5.25 7.47562 5.27734 7.53041 5.33203C7.5852 5.38672 7.6126 5.4566 7.6126 5.54167ZM9.95026 5.54167V10.7917C9.95026 10.8767 9.92286 10.9466 9.86807 11.0013C9.81329 11.056 9.74328 11.0833 9.65805 11.0833H9.07364C8.98841 11.0833 8.9184 11.056 8.86361 11.0013C8.80882 10.9466 8.78143 10.8767 8.78143 10.7917V5.54167C8.78143 5.4566 8.80882 5.38672 8.86361 5.33203C8.9184 5.27734 8.98841 5.25 9.07364 5.25H9.65805C9.74328 5.25 9.81329 5.27734 9.86807 5.33203C9.92286 5.38672 9.95026 5.4566 9.95026 5.54167ZM11.1191 12.1406V3.5H2.93727V12.1406C2.93727 12.2743 2.95858 12.3974 3.00119 12.5098C3.04381 12.6222 3.08794 12.7042 3.1336 12.7559C3.17926 12.8075 3.21122 12.8333 3.22948 12.8333H10.8269C10.8451 12.8333 10.8771 12.8075 10.9228 12.7559C10.9684 12.7042 11.0126 12.6222 11.0552 12.5098C11.0978 12.3974 11.1191 12.2743 11.1191 12.1406ZM4.98273 2.33333H9.07364L8.63532 1.26693C8.59271 1.21224 8.54096 1.17882 8.48009 1.16667H5.5854C5.52453 1.17882 5.47278 1.21224 5.43017 1.26693L4.98273 2.33333ZM13.4568 2.625V3.20833C13.4568 3.2934 13.4294 3.36328 13.3746 3.41797C13.3198 3.47266 13.2498 3.5 13.1645 3.5H12.2879V12.1406C12.2879 12.645 12.1449 13.0809 11.8587 13.4486C11.5726 13.8162 11.2287 14 10.8269 14H3.22948C2.82769 14 2.48374 13.8223 2.19762 13.4668C1.9115 13.1113 1.76844 12.6814 1.76844 12.1771V3.5H0.891817C0.80659 3.5 0.736582 3.47266 0.681793 3.41797C0.627004 3.36328 0.599609 3.2934 0.599609 3.20833V2.625C0.599609 2.53993 0.627004 2.47005 0.681793 2.41536C0.736582 2.36068 0.80659 2.33333 0.891817 2.33333H3.71345L4.35265 0.811198C4.44397 0.586371 4.60834 0.394965 4.84575 0.236979C5.08317 0.0789931 5.32364 0 5.56714 0H8.48922C8.73273 0 8.97319 0.0789931 9.21061 0.236979C9.44803 0.394965 9.61239 0.586371 9.70371 0.811198L10.3429 2.33333H13.1645C13.2498 2.33333 13.3198 2.36068 13.3746 2.41536C13.4294 2.47005 13.4568 2.53993 13.4568 2.625Z" fill="#F24E1E"/>
</svg>
